# xmcd
#
# Track frame offsets:
# 150
# 3635
# 140155
# 144357
#
# Disc length: 4282 seconds
#
# Revision: 0
# Processed by: cddbd v1.4PL0 Copyright (c) Steve Scherf et al.
# Submitted via: Audion 3.0.2 (http://www.panic.com/audion/)
#
DISCID=3510b804
DTITLE=Sound Portraits - Ghetto Life 101 and Remorse: The Fourteen Stories of Eric Morse
DYEAR=1900
DGENRE=
TTITLE0=Ghetto Life 101 Introduction
TTITLE1=Ghetto Life 101
TTITLE2=Remorse: The Fourteen Stories of Eric Morse Introduction
TTITLE3=Remorse: The Fourteen Stories of Eric Morse
EXTD=
EXTT0=
EXTT1=
EXTT2=
EXTT3=
PLAYORDER=
